# xmcd CD database file
#
# Track frame offsets:
#	150
#	22172
#	57465
#	72415
#	95865
#	123527
#	145365
#	161287
#	175330
#	195812
#	216695
#
# Disc length: 3138 seconds
#
# Revision: 0
# Processed by: cddbd v1.5.1PL0 Copyright (c) Steve Scherf et al.
# Submitted via: CDex 1.51
#
DISCID=ad0c400b
DTITLE=Larry Van Loon - Midnight In K.C.
DYEAR=1900
DGENRE=Jazz
TTITLE0=Try Matty's
TTITLE1=Midnight In K.C.
TTITLE2=Shopping For Her Next Old Flame
TTITLE3=Rita Don't Live Here No More
TTITLE4=Misery Loves Company
TTITLE5=Somebody Like You
TTITLE6=This Time Let's Say It's For Good
TTITLE7=Napoleon Blownaparte
TTITLE8=What The Woman Knows
TTITLE9=We Could Be Hip Next Week
TTITLE10=Thinkin' About Going Home
EXTD=
EXTT0=
EXTT1=
EXTT2=
EXTT3=
EXTT4=
EXTT5=
EXTT6=
EXTT7=
EXTT8=
EXTT9=
EXTT10=
PLAYORDER=
